<?xml version="1.0" encoding="UTF-8"?>
<svg width="800px" height="400px" viewBox="0 0 800 400" version="1.1" xmlns="http://www.w3.org/2000/svg" xmlns:xlink="http://www.w3.org/1999/xlink">
    <!-- Generator: Sketch 46.2 (44496) - http://www.bohemiancoding.com/sketch -->
    <title>logo</title>
    <desc>Created with Sketch.</desc>
    <defs></defs>
    <g id="Page-1" stroke="none" stroke-width="1" fill="none" fill-rule="evenodd">
        <g id="logo">
            <g id="OHAI" transform="translate(66.500000, 64.500000)">
                <path d="M135.507829,233.445338 C189.829614,233.445338 233.866123,189.40883 233.866123,135.087044 C233.866123,80.7652581 189.829614,36.7287499 135.507829,36.7287499 C81.1860429,36.7287499 37.1495348,80.7652581 37.1495348,135.087044 C37.1495348,189.40883 81.1860429,233.445338 135.507829,233.445338 Z M135.507829,270.087044 C60.9493874,270.087044 0.507828639,209.645485 0.507828639,135.087044 C0.507828639,60.5286026 60.9493874,0.0870438055 135.507829,0.0870438055 C210.06627,0.0870438055 270.507829,60.5286026 270.507829,135.087044 C270.507829,209.645485 210.06627,270.087044 135.507829,270.087044 Z" id="O" fill="#444444" fill-rule="nonzero"></path>
                <path d="M277.643973,147.496144 L336.578483,147.496144 L336.578483,223.496144 C336.578483,232.884985 344.189642,240.496144 353.578483,240.496144 C362.967324,240.496144 370.578483,232.884985 370.578483,223.496144 L370.578483,147.496144 L441.578483,147.496144 C450.967324,147.496144 458.578483,139.884985 458.578483,130.496144 C458.578483,121.107304 450.967324,113.496144 441.578483,113.496144 L370.578483,113.496144 L370.578483,37.4961444 C370.578483,28.1073037 362.967324,20.4961444 353.578483,20.4961444 C344.189642,20.4961444 336.578483,28.1073037 336.578483,37.4961444 L336.578483,113.496144 L277.643973,113.496144 L277.643973,70.4697145 C277.643973,61.0627891 270.018153,53.4369694 260.611228,53.4369694 C251.204303,53.4369694 243.578483,61.0627891 243.578483,70.4697145 L243.578483,190.522574 C243.578483,199.9295 251.204303,207.55532 260.611228,207.55532 C270.018153,207.55532 277.643973,199.9295 277.643973,190.522574 L277.643973,147.496144 Z" id="Combined-Shape" fill="#F5CE23"></path>
                <path d="M528.110483,230.43676 C514.558087,252.827636 489.970327,267.793074 461.887201,267.793074 C419.166311,267.793074 384.534186,233.160949 384.534186,190.440059 C384.534186,147.719168 419.166311,113.087044 461.887201,113.087044 C496.057925,113.087044 525.053652,135.243836 535.291327,165.974365 L560.875277,228.813027 C561.774858,231.022554 563.737783,232.621816 566.08351,233.056352 C569.88483,233.760529 573.537258,231.249799 574.241436,227.448478 L588.293933,151.589695 C567.568744,143.155488 552.95814,122.812773 552.95814,99.0575684 C552.95814,67.7471968 578.340211,42.3651256 609.650583,42.3651256 C640.960954,42.3651256 666.343025,67.7471968 666.343025,99.0575684 C666.343025,127.762444 645.009533,151.484616 617.332703,155.233928 L599.191928,244.034989 C596.332231,258.033517 584.017278,268.087044 569.729638,268.087044 L566.452295,268.087044 C553.500133,268.087044 541.745527,260.510146 536.39716,248.713814 L536.39716,248.713814 L528.110483,230.43676 Z M609.650583,130.366928 C626.942265,130.366928 640.959942,116.34925 640.959942,99.0575684 C640.959942,81.7658866 626.942265,67.7482088 609.650583,67.7482088 C592.358901,67.7482088 578.341223,81.7658866 578.341223,99.0575684 C578.341223,116.34925 592.358901,130.366928 609.650583,130.366928 Z M461.887201,235.643903 C486.852595,235.643903 507.091046,215.405453 507.091046,190.440059 C507.091046,165.474665 486.852595,145.236214 461.887201,145.236214 C436.921807,145.236214 416.683357,165.474665 416.683357,190.440059 C416.683357,215.405453 436.921807,235.643903 461.887201,235.643903 Z" id="ai" fill="#444444" fill-rule="nonzero"></path>
            </g>
        </g>
    </g>
</svg>